<svg xmlns="http://www.w3.org/2000/svg" viewBox="0 0 410 404"><defs><linearGradient id="a" x1="50%" x2="50%" y1="0%" y2="100%"><stop offset="0%" stop-color="#41D1FF"/><stop offset="100%" stop-color="#BD34FE"/></linearGradient><linearGradient id="b" x1="50%" x2="50%" y1="0%" y2="100%"><stop offset="0%" stop-color="#FFEA83"/><stop offset="8.333%" stop-color="#FFDD35"/><stop offset="100%" stop-color="#FFA800"/></linearGradient></defs><g fill="none"><path fill="url(#a)" d="M399 39c-4-12-16-19-28-17L35 55C23 57 14 68 15 80c0 2 0 4 1 6l61 273c3 12 15 20 27 17l305-33c12-1 21-12 20-24 0-2 0-4-1-6L399 39z"/><path fill="url(#b)" d="M299 0c-6 0-12 3-15 9L153 260c-4 7-1 16 7 19 2 1 4 1 6 1h78c7 0 13-4 16-10l77-251c2-8-2-16-10-18-2-1-4-1-6-1z"/><path fill="#FFF" fill-opacity=".2" d="M399 39c-4-12-16-19-28-17L35 55C23 57 14 68 15 80c0 2 0 4 1 6l61 273c3 12 15 20 27 17l305-33c12-1 21-12 20-24 0-2 0-4-1-6L399 39z"/><path fill="#FFF" fill-opacity=".2" d="M299 0c-6 0-12 3-15 9L153 260c-4 7-1 16 7 19 2 1 4 1 6 1h78c7 0 13-4 16-10l77-251c2-8-2-16-10-18-2-1-4-1-6-1z"/></g></svg>